<svg aria-hidden="true" style="position: absolute; width: 0; height: 0; overflow: hidden;" version="1.1" xmlns="http://www.w3.org/2000/svg" xmlns:xlink="http://www.w3.org/1999/xlink">
<defs>
<symbol id="icon-search" viewBox="0 0 32 32">
<path fill="#737373" style="fill: var(--color1, #737373)" d="M22.92 20.638l8.608 8.608c0.303 0.303 0.472 0.713 0.472 1.141s-0.17 0.839-0.473 1.141-0.713 0.472-1.141 0.472c-0.428-0-0.838-0.17-1.141-0.473l-8.608-8.608c-2.573 1.993-5.809 2.931-9.049 2.623s-6.241-1.839-8.393-4.281c-2.151-2.442-3.292-5.612-3.189-8.865s1.441-6.345 3.742-8.646c2.301-2.301 5.393-3.64 8.646-3.742s6.423 1.038 8.865 3.189 3.973 5.153 4.281 8.393c0.308 3.24-0.63 6.476-2.623 9.049h0.002zM12.801 22.399c2.546 0 4.988-1.011 6.788-2.812s2.812-4.242 2.812-6.788c0-2.546-1.011-4.988-2.812-6.788s-4.242-2.812-6.788-2.812c-2.546 0-4.988 1.011-6.788 2.812s-2.812 4.242-2.812 6.788c0 2.546 1.011 4.988 2.812 6.788s4.242 2.812 6.788 2.812z"></path>
</symbol>
<symbol id="icon-menu" viewBox="0 0 55 32">
<path fill="#737373" style="fill: var(--color1, #737373)" d="M1.306 0h52.245v5.224h-52.245v-5.224zM14.367 13.061h39.184v5.224h-39.184v-5.224zM30.694 26.122h22.857v5.224h-22.857v-5.224z"></path>
</symbol>
<symbol id="icon-shopping" viewBox="0 0 33 32">
<path fill="#737373" style="fill: var(--color1, #737373)" d="M11.13 31.166c1.229 0 2.226-0.997 2.226-2.226s-0.997-2.226-2.226-2.226c-1.229 0-2.226 0.997-2.226 2.226s0.997 2.226 2.226 2.226z"></path>
<path fill="#737373" style="fill: var(--color1, #737373)" d="M26.713 31.166c1.229 0 2.226-0.997 2.226-2.226s-0.997-2.226-2.226-2.226c-1.23 0-2.226 0.997-2.226 2.226s0.997 2.226 2.226 2.226z"></path>
<path fill="#737373" style="fill: var(--color1, #737373)" d="M31.165 5.565h-24.687l-0.913-4.675c-0.052-0.255-0.192-0.484-0.395-0.647s-0.457-0.249-0.718-0.244h-4.452v2.226h3.539l4.252 21.37c0.052 0.255 0.192 0.484 0.395 0.647s0.457 0.249 0.718 0.244h20.035v-2.226h-19.122l-0.913-4.452h20.035c0.257 0.006 0.509-0.077 0.712-0.235s0.345-0.382 0.401-0.633l2.226-10.017c0.037-0.165 0.036-0.337-0.002-0.501s-0.115-0.318-0.222-0.449c-0.107-0.131-0.243-0.236-0.397-0.306s-0.322-0.105-0.491-0.101zM28.049 15.583h-19.567l-1.558-7.791h22.851l-1.725 7.791z"></path>
</symbol>
</defs>
</svg>
