<svg aria-hidden="true" style="position: absolute; width: 0; height: 0; overflow: hidden;" version="1.1" xmlns="http://www.w3.org/2000/svg" xmlns:xlink="http://www.w3.org/1999/xlink">
<defs>
<symbol id="icon-icon-y" viewBox="0 0 33 32">
<path fill="#f3cd03" style="fill: var(--color1, #f3cd03)" d="M30.068 12.236c-0.084-0.247-0.238-0.464-0.444-0.624s-0.454-0.257-0.714-0.278l-7.606-0.604-3.291-7.286c-0.105-0.235-0.275-0.434-0.491-0.574s-0.467-0.214-0.724-0.215c-0.257-0-0.509 0.074-0.724 0.214s-0.386 0.339-0.492 0.573l-3.291 7.287-7.606 0.604c-0.256 0.020-0.5 0.114-0.704 0.269s-0.359 0.366-0.446 0.607c-0.087 0.241-0.103 0.502-0.046 0.752s0.186 0.478 0.369 0.657l5.621 5.479-1.988 8.608c-0.060 0.261-0.041 0.533 0.056 0.783s0.266 0.464 0.486 0.616c0.22 0.152 0.481 0.234 0.748 0.236s0.529-0.076 0.752-0.225l7.264-4.843 7.265 4.843c0.227 0.151 0.495 0.229 0.768 0.223s0.537-0.095 0.757-0.256c0.221-0.161 0.386-0.385 0.476-0.643s0.097-0.537 0.023-0.799l-2.44-8.539 6.052-5.446c0.396-0.358 0.542-0.915 0.371-1.421z"></path>
</symbol>
<symbol id="icon-icon-w" viewBox="0 0 33 32">
<path fill="#f3cd03" style="fill: var(--color1, #f3cd03)" d="M9.502 19.099l-1.988 8.608c-0.062 0.261-0.043 0.534 0.053 0.784s0.265 0.465 0.486 0.617c0.22 0.152 0.481 0.235 0.749 0.236s0.53-0.078 0.752-0.227l7.265-4.843 7.264 4.843c0.227 0.151 0.495 0.229 0.768 0.223s0.537-0.095 0.758-0.256c0.22-0.161 0.386-0.385 0.475-0.643s0.097-0.537 0.023-0.799l-2.44-8.539 6.052-5.446c0.194-0.175 0.332-0.402 0.398-0.654s0.056-0.518-0.027-0.765c-0.084-0.247-0.238-0.464-0.444-0.624s-0.454-0.257-0.714-0.277l-7.606-0.606-3.291-7.286c-0.105-0.235-0.276-0.434-0.491-0.574s-0.467-0.214-0.724-0.214-0.509 0.074-0.724 0.214c-0.216 0.14-0.386 0.339-0.491 0.574l-3.291 7.286-7.606 0.604c-0.256 0.020-0.5 0.114-0.704 0.269s-0.359 0.366-0.446 0.607c-0.087 0.241-0.103 0.502-0.046 0.752s0.186 0.478 0.369 0.657l5.622 5.479zM13.308 13.328c0.238-0.019 0.467-0.101 0.662-0.239s0.35-0.325 0.448-0.543l2.4-5.311 2.4 5.311c0.098 0.218 0.253 0.405 0.448 0.543s0.424 0.22 0.662 0.239l5.299 0.42-4.364 3.928c-0.379 0.342-0.53 0.867-0.391 1.358l1.672 5.85-4.984-3.323c-0.219-0.147-0.476-0.225-0.74-0.225s-0.521 0.078-0.74 0.225l-5.209 3.473 1.401-6.065c0.051-0.223 0.044-0.456-0.020-0.675s-0.184-0.419-0.348-0.579l-4.053-3.952 5.457-0.435z"></path>
</symbol>
</defs>
</svg>
